<mxfile host="app.diagrams.net" agent="Mozilla/5.0 (Windows NT 10.0; Win64; x64) AppleWebKit/537.36 (KHTML, like Gecko) Chrome/127.0.0.0 Safari/537.36" version="24.7.6">
  <diagram name="第 1 页" id="8d9RNE285fZOhNBd5rqw">
    <mxGraphModel dx="1050" dy="653" grid="1" gridSize="10" guides="1" tooltips="1" connect="1" arrows="1" fold="1" page="1" pageScale="1" pageWidth="827" pageHeight="1169" math="0" shadow="0">
      <root>
        <mxCell id="0" />
        <mxCell id="1" parent="0" />
        <mxCell id="YoXRaA9aK7RN8XXWQdYr-9" value="" style="edgeStyle=orthogonalEdgeStyle;rounded=0;orthogonalLoop=1;jettySize=auto;html=1;" edge="1" parent="1" source="YoXRaA9aK7RN8XXWQdYr-1" target="YoXRaA9aK7RN8XXWQdYr-2">
          <mxGeometry relative="1" as="geometry" />
        </mxCell>
        <mxCell id="YoXRaA9aK7RN8XXWQdYr-1" value="driver" style="rounded=0;whiteSpace=wrap;html=1;" vertex="1" parent="1">
          <mxGeometry x="170" y="150" width="60" height="40" as="geometry" />
        </mxCell>
        <mxCell id="YoXRaA9aK7RN8XXWQdYr-10" value="" style="edgeStyle=orthogonalEdgeStyle;rounded=0;orthogonalLoop=1;jettySize=auto;html=1;" edge="1" parent="1" source="YoXRaA9aK7RN8XXWQdYr-2" target="YoXRaA9aK7RN8XXWQdYr-4">
          <mxGeometry relative="1" as="geometry" />
        </mxCell>
        <mxCell id="YoXRaA9aK7RN8XXWQdYr-2" value="adapter" style="rounded=0;whiteSpace=wrap;html=1;" vertex="1" parent="1">
          <mxGeometry x="270" y="150" width="60" height="40" as="geometry" />
        </mxCell>
        <mxCell id="YoXRaA9aK7RN8XXWQdYr-3" value="sender" style="rounded=0;whiteSpace=wrap;html=1;" vertex="1" parent="1">
          <mxGeometry x="680" y="150" width="60" height="40" as="geometry" />
        </mxCell>
        <mxCell id="YoXRaA9aK7RN8XXWQdYr-4" value="plugin" style="rounded=0;whiteSpace=wrap;html=1;" vertex="1" parent="1">
          <mxGeometry x="370" y="150" width="60" height="40" as="geometry" />
        </mxCell>
        <mxCell id="YoXRaA9aK7RN8XXWQdYr-15" style="edgeStyle=orthogonalEdgeStyle;rounded=0;orthogonalLoop=1;jettySize=auto;html=1;exitX=0.5;exitY=1;exitDx=0;exitDy=0;" edge="1" parent="1" source="YoXRaA9aK7RN8XXWQdYr-5">
          <mxGeometry relative="1" as="geometry">
            <mxPoint x="520" y="210" as="targetPoint" />
          </mxGeometry>
        </mxCell>
        <mxCell id="YoXRaA9aK7RN8XXWQdYr-5" value="plugin" style="rounded=0;whiteSpace=wrap;html=1;" vertex="1" parent="1">
          <mxGeometry x="490" y="150" width="60" height="40" as="geometry" />
        </mxCell>
        <mxCell id="YoXRaA9aK7RN8XXWQdYr-6" value="plugin" style="rounded=0;whiteSpace=wrap;html=1;" vertex="1" parent="1">
          <mxGeometry x="560" y="150" width="60" height="40" as="geometry" />
        </mxCell>
        <mxCell id="YoXRaA9aK7RN8XXWQdYr-11" style="edgeStyle=orthogonalEdgeStyle;rounded=0;orthogonalLoop=1;jettySize=auto;html=1;exitX=0.5;exitY=0;exitDx=0;exitDy=0;entryX=0.5;entryY=0;entryDx=0;entryDy=0;" edge="1" parent="1" source="YoXRaA9aK7RN8XXWQdYr-4" target="YoXRaA9aK7RN8XXWQdYr-5">
          <mxGeometry relative="1" as="geometry" />
        </mxCell>
        <mxCell id="YoXRaA9aK7RN8XXWQdYr-12" style="edgeStyle=orthogonalEdgeStyle;rounded=0;orthogonalLoop=1;jettySize=auto;html=1;entryX=0.5;entryY=0.013;entryDx=0;entryDy=0;entryPerimeter=0;" edge="1" parent="1" target="YoXRaA9aK7RN8XXWQdYr-6">
          <mxGeometry relative="1" as="geometry">
            <mxPoint x="400" y="150" as="sourcePoint" />
            <mxPoint x="550" y="160" as="targetPoint" />
            <Array as="points">
              <mxPoint x="400" y="130" />
              <mxPoint x="590" y="130" />
            </Array>
          </mxGeometry>
        </mxCell>
        <mxCell id="YoXRaA9aK7RN8XXWQdYr-14" style="edgeStyle=orthogonalEdgeStyle;rounded=0;orthogonalLoop=1;jettySize=auto;html=1;exitX=0.5;exitY=1;exitDx=0;exitDy=0;entryX=0.5;entryY=1;entryDx=0;entryDy=0;entryPerimeter=0;" edge="1" parent="1" source="YoXRaA9aK7RN8XXWQdYr-4" target="YoXRaA9aK7RN8XXWQdYr-3">
          <mxGeometry relative="1" as="geometry" />
        </mxCell>
        <mxCell id="YoXRaA9aK7RN8XXWQdYr-16" style="edgeStyle=orthogonalEdgeStyle;rounded=0;orthogonalLoop=1;jettySize=auto;html=1;exitX=0.5;exitY=1;exitDx=0;exitDy=0;" edge="1" parent="1" source="YoXRaA9aK7RN8XXWQdYr-6">
          <mxGeometry relative="1" as="geometry">
            <mxPoint x="590" y="210" as="targetPoint" />
          </mxGeometry>
        </mxCell>
        <mxCell id="YoXRaA9aK7RN8XXWQdYr-17" value="" style="rounded=0;whiteSpace=wrap;html=1;fillColor=none;dashed=1;dashPattern=8 8;" vertex="1" parent="1">
          <mxGeometry x="160" y="120" width="590" height="110" as="geometry" />
        </mxCell>
        <mxCell id="YoXRaA9aK7RN8XXWQdYr-18" value="web interface（http/websocket）" style="rounded=0;whiteSpace=wrap;html=1;" vertex="1" parent="1">
          <mxGeometry x="120" y="250" width="120" height="60" as="geometry" />
        </mxCell>
      </root>
    </mxGraphModel>
  </diagram>
</mxfile>
